<svg viewBox="0 0 317 385" xmlns="http://www.w3.org/2000/svg" fill-rule="evenodd" clip-rule="evenodd" stroke-linejoin="round" stroke-miterlimit="2"><path d="M13.262 186.363c-1.28 1.256-1.922 2.808-1.922 4.65 0 1.842.642 3.389 1.922 4.637 1.28 1.252 2.883 1.878 4.809 1.878.737 0 1.471-.103 2.201-.303.729-.199 1.348-.454 1.846-.769.498-.311.941-.622 1.32-.925.383-.307.678-.559.893-.762l.259-.299 5.064 5.359a6.352 6.352 0 01-.462.59c-.204.247-.678.678-1.412 1.296a16.13 16.13 0 01-2.352 1.639c-.834.475-1.934.905-3.31 1.284a15.716 15.716 0 01-4.235.574c-4.274 0-7.871-1.399-10.786-4.191-2.919-2.791-4.378-6.132-4.378-10.016 0-3.888 1.459-7.225 4.378-10.021 2.915-2.791 6.512-4.187 10.786-4.187 1.46 0 2.859.188 4.199.563 1.336.375 2.44.821 3.314 1.347a22.046 22.046 0 012.308 1.576c.662.522 1.149.972 1.46 1.347l.415.547-5.176 5.379-.307-.327c-.132-.144-.407-.395-.826-.75a9.194 9.194 0 00-1.32-.941c-.462-.267-1.048-.51-1.754-.73a7.144 7.144 0 00-2.125-.327c-1.926 0-3.529.626-4.809 1.882zm91.479 15.398h15.93v2.68h-18.817v-26.876h18.817v2.7h-15.93v8.828h15.93v2.68h-15.93v9.988zm90.062-24.195h10.739c4.174 0 7.647 1.312 10.423 3.935 2.771 2.624 4.159 5.79 4.159 9.503 0 3.712-1.388 6.878-4.159 9.502-2.776 2.624-6.249 3.935-10.423 3.935h-10.739v-26.875zm10.739 7.684h-2.118v11.508h2.118c1.714 0 3.13-.551 4.254-1.651 1.125-1.101 1.687-2.465 1.687-4.103 0-1.639-.562-3.007-1.687-4.107-1.124-1.097-2.54-1.647-4.254-1.647zm105.426-4.029c2.688 2.687 4.032 5.945 4.032 9.781 0 3.836-1.344 7.098-4.032 9.785-2.687 2.688-5.945 4.028-9.781 4.028-3.84 0-7.098-1.34-9.785-4.028-2.688-2.687-4.032-5.949-4.032-9.785 0-3.836 1.344-7.094 4.032-9.781 2.687-2.688 5.945-4.028 9.785-4.028 3.836 0 7.094 1.34 9.781 4.028zm-17.56 1.854c-2.114 2.137-3.17 4.781-3.17 7.927 0 3.15 1.056 5.794 3.17 7.931 2.109 2.137 4.705 3.202 7.779 3.202 3.07 0 5.662-1.065 7.776-3.202 2.113-2.137 3.17-4.781 3.17-7.931 0-3.146-1.057-5.79-3.17-7.927-2.114-2.137-4.706-3.206-7.776-3.206-3.074 0-5.67 1.069-7.779 3.206zM5.437 271.986h8.453c3.912 0 7.222 1.316 9.933 3.952 2.711 2.639 4.067 5.802 4.067 9.486 0 3.688-1.356 6.846-4.067 9.482-2.711 2.64-6.021 3.956-9.933 3.956H5.437v-26.876zm8.453 2.7H8.324v21.496h5.566c3.15 0 5.79-1.045 7.927-3.13 2.138-2.085 3.206-4.625 3.206-7.62 0-2.991-1.068-5.531-3.206-7.62-2.137-2.086-4.777-3.126-7.927-3.126zm107.007.72c2.919 2.791 4.374 6.133 4.374 10.017 0 3.888-1.455 7.225-4.374 10.016-2.919 2.795-6.512 4.191-10.786 4.191-4.275 0-7.867-1.396-10.786-4.191-2.919-2.791-4.379-6.128-4.379-10.016 0-3.884 1.46-7.226 4.379-10.017 2.919-2.791 6.511-4.191 10.786-4.191 4.274 0 7.867 1.4 10.786 4.191zm-15.428 5.399c-1.264 1.268-1.902 2.811-1.902 4.63 0 1.814.638 3.357 1.902 4.617 1.272 1.264 2.812 1.894 4.634 1.894 1.814 0 3.357-.63 4.625-1.894 1.268-1.26 1.906-2.803 1.906-4.617 0-1.819-.638-3.362-1.906-4.63-1.268-1.268-2.811-1.906-4.625-1.906-1.822 0-3.362.638-4.634 1.906zm95.857 15.377h15.934v2.679h-18.821v-26.875h18.821v2.699h-15.934v8.829h15.934v2.679h-15.934v9.989zm91.8-.975c-2.687-2.687-4.031-5.949-4.031-9.781 0-3.84 1.344-7.098 4.031-9.785 2.688-2.688 5.946-4.028 9.782-4.028 1.363 0 2.667.188 3.919.571 1.248.382 2.285.837 3.103 1.375a18.852 18.852 0 012.153 1.631c.618.55 1.065 1.017 1.34 1.408l.434.578-1.934 1.726a7.411 7.411 0 00-.335-.498c-.151-.203-.502-.57-1.052-1.097a11.222 11.222 0 00-1.787-1.395c-.646-.407-1.491-.778-2.54-1.113a10.662 10.662 0 00-3.301-.51c-3.071 0-5.666 1.069-7.776 3.206-2.113 2.137-3.17 4.781-3.17 7.931 0 3.146 1.057 5.79 3.17 7.927 2.11 2.137 4.705 3.202 7.776 3.202 1.152 0 2.253-.156 3.301-.475 1.049-.319 1.922-.705 2.616-1.156.69-.447 1.3-.893 1.826-1.336.523-.446.898-.837 1.125-1.172l.355-.471 1.914 1.743c-.1.152-.255.347-.463.59-.203.243-.662.686-1.367 1.324a16.443 16.443 0 01-2.241 1.703c-.786.502-1.819.949-3.099 1.343a13.535 13.535 0 01-3.967.591c-3.836 0-7.094-1.344-9.782-4.032zM26.756 4.029c2.688 2.688 4.031 5.946 4.031 9.786 0 3.836-1.343 7.097-4.031 9.781-2.688 2.688-5.95 4.031-9.781 4.031-3.841 0-7.099-1.343-9.786-4.031-2.688-2.684-4.032-5.945-4.032-9.781 0-3.84 1.344-7.098 4.032-9.786C9.876 1.342 13.134.002 16.975.002c3.831 0 7.093 1.34 9.781 4.027zM9.194 5.884c-2.112 2.137-3.169 4.781-3.169 7.931 0 3.146 1.057 5.789 3.169 7.927 2.111 2.137 4.706 3.202 7.781 3.202 3.07 0 5.662-1.065 7.775-3.202 2.113-2.138 3.17-4.781 3.17-7.927 0-3.15-1.057-5.794-3.17-7.931-2.113-2.134-4.705-3.206-7.775-3.206-3.075 0-5.67 1.072-7.781 3.206zM6.663 372.987c-.81.794-1.212 1.775-1.212 2.939 0 1.164.402 2.141 1.212 2.931.809.789 1.822 1.184 3.038 1.184.467 0 .933-.06 1.396-.187.459-.128.849-.287 1.164-.487a9.306 9.306 0 001.4-1.064l.163-.192 3.202 3.39a4.168 4.168 0 01-.291.374c-.131.152-.43.427-.897.818-.462.391-.961.737-1.483 1.037-.527.299-1.224.57-2.094.809a9.892 9.892 0 01-2.675.363c-2.704 0-4.977-.881-6.823-2.648C.921 380.488 0 378.378 0 375.918c0-2.456.921-4.566 2.763-6.332 1.846-1.766 4.119-2.648 6.823-2.648.921 0 1.806.12 2.651.355.846.239 1.548.523 2.098.854.554.33 1.041.665 1.459.996.419.331.726.614.921.854l.263.343-3.269 3.397a2.698 2.698 0 01-.196-.203 6.472 6.472 0 00-.522-.475 5.482 5.482 0 00-.837-.594 5.637 5.637 0 00-1.105-.463 4.645 4.645 0 00-1.348-.207c-1.216 0-2.229.399-3.038 1.192zm35.265-3.399c1.846 1.762 2.767 3.875 2.767 6.332 0 2.456-.921 4.569-2.767 6.332-1.846 1.766-4.119 2.651-6.818 2.651-2.704 0-4.977-.885-6.819-2.651-1.846-1.763-2.767-3.876-2.767-6.332 0-2.457.921-4.57 2.767-6.332 1.842-1.767 4.115-2.648 6.819-2.648 2.699 0 4.972.881 6.818 2.648zm-9.749 3.413c-.806.801-1.204 1.774-1.204 2.927 0 1.148.398 2.121 1.204 2.918.801.798 1.774 1.197 2.923 1.197 1.152 0 2.125-.399 2.926-1.197.802-.797 1.205-1.77 1.205-2.918 0-1.153-.403-2.126-1.205-2.927-.801-.806-1.774-1.204-2.926-1.204-1.149 0-2.122.398-2.923 1.204zm22.947-5.576h6.791c2.635 0 4.832.829 6.587 2.488 1.75 1.659 2.628 3.66 2.628 6.005 0 2.349-.878 4.35-2.628 6.009-1.755 1.659-3.952 2.488-6.587 2.488h-6.791v-16.99zm6.791 4.856h-1.34v7.278h1.34c1.08 0 1.977-.347 2.687-1.045.714-.694 1.069-1.559 1.069-2.596 0-1.033-.355-1.898-1.069-2.592-.71-.698-1.607-1.045-2.687-1.045zm25.098 7.644h8.258v4.49H81.564v-16.991h13.709v4.494h-8.258v1.822h8.258v4.123h-8.258v2.062zm24.387 4.49l-6.683-16.99h1.942l5.583 14.442 5.582-14.442h1.942l-6.671 16.99h-1.695zm21.226-1.693H142.7v1.694h-11.899v-16.99H142.7v1.706h-10.072v5.579H142.7v1.694h-10.072v6.317zm32.018 1.693h-10.559v-16.99h1.826v15.296h8.733v1.694zm23.642-14.679c1.699 1.698 2.548 3.76 2.548 6.184 0 2.424-.849 4.486-2.548 6.185-1.699 1.698-3.76 2.548-6.184 2.548-2.425 0-4.486-.85-6.185-2.548-1.699-1.699-2.548-3.761-2.548-6.185 0-2.424.849-4.486 2.548-6.184 1.699-1.699 3.76-2.549 6.185-2.549 2.424 0 4.485.85 6.184 2.549zm-11.101 1.172c-1.336 1.352-2.002 3.022-2.002 5.012 0 1.99.666 3.661 2.002 5.012 1.336 1.352 2.975 2.026 4.917 2.026 1.941 0 3.58-.674 4.916-2.026 1.336-1.351 2.002-3.022 2.002-5.012 0-1.99-.666-3.66-2.002-5.012-1.336-1.352-2.975-2.026-4.916-2.026-1.942 0-3.581.674-4.917 2.026zm25.418-3.483h6.436c1.571 0 2.875.51 3.908 1.527 1.036 1.021 1.551 2.293 1.551 3.812 0 1.519-.519 2.791-1.555 3.812-1.041 1.025-2.341 1.535-3.904 1.535h-4.61v6.304h-1.826v-16.99zm6.436 1.706h-4.61v7.274h4.61c1.096 0 1.978-.331 2.64-.993.666-.666.997-1.547.997-2.644 0-1.097-.331-1.978-.997-2.64-.662-.666-1.544-.997-2.64-.997zm32.515 1.457l-6.799 8.972-6.791-8.972v13.829h-1.826v-16.991h1.575l7.042 9.227 7.034-9.227h1.579v16.991h-1.814v-13.829zm16.496 12.134h10.073v1.694h-11.899v-16.99h11.899v1.706h-10.073v5.579h10.073v1.694h-10.073v6.317zm33.477-15.297h1.81v16.99h-1.575l-10.427-13.708v13.708h-1.822v-16.99h1.575l10.439 13.721v-13.721zm12.61 0h12.501v1.706h-5.343v15.284h-1.814v-15.284h-5.344v-1.706zM103.212 23.598c-2.687-2.688-4.031-5.95-4.031-9.786 0-3.836 1.344-7.097 4.031-9.781C105.9 1.343 109.162 0 112.998 0c1.36 0 2.664.191 3.915.574 1.249.379 2.286.837 3.103 1.376.816.538 1.535 1.08 2.152 1.63.619.551 1.065 1.017 1.341 1.404l.435.582-1.935 1.727a8.144 8.144 0 00-.334-.499c-.153-.203-.503-.57-1.049-1.096a11.448 11.448 0 00-1.79-1.396c-.647-.407-1.492-.777-2.541-1.116a10.779 10.779 0 00-3.297-.507c-3.075 0-5.671 1.069-7.781 3.206-2.112 2.138-3.169 4.781-3.169 7.927 0 3.15 1.057 5.794 3.169 7.931 2.11 2.134 4.706 3.202 7.781 3.202 1.148 0 2.248-.159 3.297-.474 1.049-.319 1.922-.706 2.615-1.157.69-.446 1.301-.893 1.828-1.339.521-.443.896-.834 1.124-1.169l.355-.47 1.914 1.742a6.709 6.709 0 01-.463.591c-.203.243-.662.685-1.367 1.323a16.69 16.69 0 01-2.241 1.703c-.786.502-1.819.949-3.098 1.34-1.284.395-2.604.59-3.964.59-3.836 0-7.098-1.34-9.786-4.027zM199.61.375V27.25h18.821v-2.679h-15.93v-9.993h15.93v-2.675h-15.93V3.074h15.93V.375H199.61zm92.381.001h8.453c3.913 0 7.223 1.316 9.934 3.951 2.712 2.64 4.066 5.802 4.066 9.486 0 3.689-1.354 6.847-4.066 9.483-2.711 2.639-6.021 3.955-9.934 3.955h-8.453V.376zm8.453 2.699h-5.565v21.497h5.565c3.151 0 5.791-1.045 7.927-3.13 2.138-2.086 3.206-4.626 3.206-7.621 0-2.99-1.068-5.53-3.206-7.616-2.136-2.089-4.776-3.13-7.927-3.13zM7.742 106.373c-2.687-2.687-4.031-5.949-4.031-9.785 0-3.836 1.344-7.094 4.031-9.781 2.688-2.688 5.946-4.027 9.782-4.027 1.363 0 2.667.187 3.919.57 1.248.379 2.285.837 3.103 1.375a18.852 18.852 0 012.153 1.631c.618.551 1.064 1.017 1.34 1.408l.434.578-1.934 1.727a7.79 7.79 0 00-.335-.499c-.151-.203-.502-.57-1.052-1.096a11.228 11.228 0 00-1.787-1.396c-.646-.407-1.491-.778-2.54-1.116a10.786 10.786 0 00-3.301-.507c-3.071 0-5.667 1.069-7.776 3.206-2.113 2.137-3.17 4.781-3.17 7.927 0 3.15 1.057 5.794 3.17 7.931 2.109 2.138 4.705 3.202 7.776 3.202 1.152 0 2.252-.159 3.301-.474 1.049-.319 1.922-.706 2.616-1.157.69-.446 1.3-.893 1.826-1.34.523-.442.897-.833 1.125-1.168l.355-.47 1.914 1.742c-.1.152-.256.347-.463.59-.203.244-.662.686-1.368 1.324a16.321 16.321 0 01-2.241 1.703c-.785.502-1.818.949-3.098 1.344-1.284.39-2.604.586-3.967.586-3.836 0-7.094-1.34-9.782-4.028zm112.143-19.566c2.687 2.688 4.027 5.946 4.027 9.781 0 3.836-1.34 7.098-4.027 9.786-2.688 2.687-5.95 4.027-9.786 4.027-3.836 0-7.093-1.34-9.781-4.027-2.688-2.688-4.031-5.95-4.031-9.786 0-3.835 1.343-7.093 4.031-9.781 2.688-2.687 5.945-4.027 9.781-4.027 3.836 0 7.098 1.34 9.786 4.027zm-17.561 1.854c-2.114 2.138-3.17 4.781-3.17 7.927 0 3.151 1.056 5.794 3.17 7.932 2.109 2.137 4.705 3.202 7.775 3.202 3.075 0 5.666-1.065 7.78-3.202 2.113-2.138 3.17-4.781 3.17-7.932 0-3.146-1.057-5.789-3.17-7.927-2.114-2.137-4.705-3.206-7.78-3.206-3.07 0-5.666 1.069-7.775 3.206zm93.997-5.509h8.453c3.912 0 7.222 1.316 9.933 3.952 2.712 2.64 4.067 5.798 4.067 9.486 0 3.685-1.355 6.847-4.067 9.482-2.711 2.64-6.021 3.956-9.933 3.956h-8.453V83.152zm8.453 2.7h-5.566v21.496h5.566c3.15 0 5.79-1.044 7.927-3.13 2.138-2.085 3.206-4.625 3.206-7.62 0-2.99-1.068-5.53-3.206-7.62-2.137-2.085-4.777-3.126-7.927-3.126zm94.874 17.073h13.063v7.102h-21.684V83.152h21.684v7.105h-13.063v2.883h13.063v6.524h-13.063v3.261z" fill="#fff" fill-rule="nonzero"/></svg>