<?xml version="1.0" encoding="UTF-8" standalone="no"?><!DOCTYPE svg PUBLIC "-//W3C//DTD SVG 1.1//EN" "http://www.w3.org/Graphics/SVG/1.1/DTD/svg11.dtd"><svg width="100%" height="100%" viewBox="0 0 317 385" version="1.1" xmlns="http://www.w3.org/2000/svg" xmlns:xlink="http://www.w3.org/1999/xlink" xml:space="preserve" xmlns:serif="http://www.serif.com/" style="fill-rule:evenodd;clip-rule:evenodd;stroke-linejoin:round;stroke-miterlimit:2;"><g><path d="M13.262,186.363c-1.28,1.256 -1.922,2.808 -1.922,4.65c0,1.842 0.642,3.389 1.922,4.637c1.28,1.252 2.883,1.878 4.809,1.878c0.737,0 1.471,-0.103 2.201,-0.303c0.729,-0.199 1.348,-0.454 1.846,-0.769c0.498,-0.311 0.941,-0.622 1.32,-0.925c0.383,-0.307 0.678,-0.559 0.893,-0.762l0.259,-0.299l5.064,5.359c-0.099,0.152 -0.255,0.347 -0.462,0.59c-0.204,0.247 -0.678,0.678 -1.412,1.296c-0.738,0.618 -1.523,1.165 -2.352,1.639c-0.834,0.475 -1.934,0.905 -3.31,1.284c-1.376,0.383 -2.787,0.574 -4.235,0.574c-4.274,0 -7.871,-1.399 -10.786,-4.191c-2.919,-2.791 -4.378,-6.132 -4.378,-10.016c-0,-3.888 1.459,-7.225 4.378,-10.021c2.915,-2.791 6.512,-4.187 10.786,-4.187c1.46,0 2.859,0.188 4.199,0.563c1.336,0.375 2.44,0.821 3.314,1.347c0.877,0.527 1.646,1.053 2.308,1.576c0.662,0.522 1.149,0.972 1.46,1.347l0.415,0.547l-5.176,5.379c-0.072,-0.076 -0.176,-0.188 -0.307,-0.327c-0.132,-0.144 -0.407,-0.395 -0.826,-0.75c-0.418,-0.359 -0.861,-0.67 -1.32,-0.941c-0.462,-0.267 -1.048,-0.51 -1.754,-0.73c-0.706,-0.219 -1.416,-0.327 -2.125,-0.327c-1.926,0 -3.529,0.626 -4.809,1.882Z" style="fill:#fff;fill-rule:nonzero;"/><path d="M104.741,201.761l15.93,0l0,2.68l-18.817,0l0,-26.876l18.817,0l0,2.7l-15.93,0l0,8.828l15.93,0l0,2.68l-15.93,0l0,9.988Z" style="fill:#fff;fill-rule:nonzero;"/><path d="M194.803,177.566l10.739,0c4.174,0 7.647,1.312 10.423,3.935c2.771,2.624 4.159,5.79 4.159,9.503c0,3.712 -1.388,6.878 -4.159,9.502c-2.776,2.624 -6.249,3.935 -10.423,3.935l-10.739,0l0,-26.875Zm10.739,7.684l-2.118,0l0,11.508l2.118,0c1.714,0 3.13,-0.551 4.254,-1.651c1.125,-1.101 1.687,-2.465 1.687,-4.103c0,-1.639 -0.562,-3.007 -1.687,-4.107c-1.124,-1.097 -2.54,-1.647 -4.254,-1.647Z" style="fill:#fff;fill-rule:nonzero;"/><path d="M310.968,181.221c2.688,2.687 4.032,5.945 4.032,9.781c-0,3.836 -1.344,7.098 -4.032,9.785c-2.687,2.688 -5.945,4.028 -9.781,4.028c-3.84,0 -7.098,-1.34 -9.785,-4.028c-2.688,-2.687 -4.032,-5.949 -4.032,-9.785c-0,-3.836 1.344,-7.094 4.032,-9.781c2.687,-2.688 5.945,-4.028 9.785,-4.028c3.836,0 7.094,1.34 9.781,4.028Zm-17.56,1.854c-2.114,2.137 -3.17,4.781 -3.17,7.927c0,3.15 1.056,5.794 3.17,7.931c2.109,2.137 4.705,3.202 7.779,3.202c3.07,0 5.662,-1.065 7.776,-3.202c2.113,-2.137 3.17,-4.781 3.17,-7.931c-0,-3.146 -1.057,-5.79 -3.17,-7.927c-2.114,-2.137 -4.706,-3.206 -7.776,-3.206c-3.074,0 -5.67,1.069 -7.779,3.206Z" style="fill:#fff;fill-rule:nonzero;"/><path d="M5.437,271.986l8.453,0c3.912,0 7.222,1.316 9.933,3.952c2.711,2.639 4.067,5.802 4.067,9.486c0,3.688 -1.356,6.846 -4.067,9.482c-2.711,2.64 -6.021,3.956 -9.933,3.956l-8.453,0l0,-26.876Zm8.453,2.7l-5.566,0l0,21.496l5.566,0c3.15,0 5.79,-1.045 7.927,-3.13c2.138,-2.085 3.206,-4.625 3.206,-7.62c0,-2.991 -1.068,-5.531 -3.206,-7.62c-2.137,-2.086 -4.777,-3.126 -7.927,-3.126Z" style="fill:#fff;fill-rule:nonzero;"/><path d="M120.897,275.406c2.919,2.791 4.374,6.133 4.374,10.017c-0,3.888 -1.455,7.225 -4.374,10.016c-2.919,2.795 -6.512,4.191 -10.786,4.191c-4.275,0 -7.867,-1.396 -10.786,-4.191c-2.919,-2.791 -4.379,-6.128 -4.379,-10.016c-0,-3.884 1.46,-7.226 4.379,-10.017c2.919,-2.791 6.511,-4.191 10.786,-4.191c4.274,0 7.867,1.4 10.786,4.191Zm-15.428,5.399c-1.264,1.268 -1.902,2.811 -1.902,4.63c0,1.814 0.638,3.357 1.902,4.617c1.272,1.264 2.812,1.894 4.634,1.894c1.814,0 3.357,-0.63 4.625,-1.894c1.268,-1.26 1.906,-2.803 1.906,-4.617c0,-1.819 -0.638,-3.362 -1.906,-4.63c-1.268,-1.268 -2.811,-1.906 -4.625,-1.906c-1.822,0 -3.362,0.638 -4.634,1.906Z" style="fill:#fff;fill-rule:nonzero;"/><path d="M201.326,296.182l15.934,0l0,2.679l-18.821,0l0,-26.875l18.821,0l0,2.699l-15.934,0l-0,8.829l15.934,0l0,2.679l-15.934,0l-0,9.989Z" style="fill:#fff;fill-rule:nonzero;"/><path d="M293.126,295.207c-2.687,-2.687 -4.031,-5.949 -4.031,-9.781c0,-3.84 1.344,-7.098 4.031,-9.785c2.688,-2.688 5.946,-4.028 9.782,-4.028c1.363,0 2.667,0.188 3.919,0.571c1.248,0.382 2.285,0.837 3.103,1.375c0.817,0.539 1.535,1.081 2.153,1.631c0.618,0.55 1.065,1.017 1.34,1.408l0.434,0.578l-1.934,1.726c-0.075,-0.127 -0.187,-0.291 -0.335,-0.498c-0.151,-0.203 -0.502,-0.57 -1.052,-1.097c-0.547,-0.526 -1.145,-0.989 -1.787,-1.395c-0.646,-0.407 -1.491,-0.778 -2.54,-1.113c-1.048,-0.339 -2.149,-0.51 -3.301,-0.51c-3.071,0 -5.666,1.069 -7.776,3.206c-2.113,2.137 -3.17,4.781 -3.17,7.931c0,3.146 1.057,5.79 3.17,7.927c2.11,2.137 4.705,3.202 7.776,3.202c1.152,0 2.253,-0.156 3.301,-0.475c1.049,-0.319 1.922,-0.705 2.616,-1.156c0.69,-0.447 1.3,-0.893 1.826,-1.336c0.523,-0.446 0.898,-0.837 1.125,-1.172l0.355,-0.471l1.914,1.743c-0.1,0.152 -0.255,0.347 -0.463,0.59c-0.203,0.243 -0.662,0.686 -1.367,1.324c-0.706,0.638 -1.452,1.204 -2.241,1.703c-0.786,0.502 -1.819,0.949 -3.099,1.343c-1.284,0.391 -2.604,0.591 -3.967,0.591c-3.836,0 -7.094,-1.344 -9.782,-4.032Z" style="fill:#fff;fill-rule:nonzero;"/><path d="M26.756,4.029c2.688,2.688 4.031,5.946 4.031,9.786c-0,3.836 -1.343,7.097 -4.031,9.781c-2.688,2.688 -5.95,4.031 -9.781,4.031c-3.841,-0 -7.099,-1.343 -9.786,-4.031c-2.688,-2.684 -4.032,-5.945 -4.032,-9.781c0,-3.84 1.344,-7.098 4.032,-9.786c2.687,-2.687 5.945,-4.027 9.786,-4.027c3.831,-0 7.093,1.34 9.781,4.027Zm-17.562,1.855c-2.112,2.137 -3.169,4.781 -3.169,7.931c-0,3.146 1.057,5.789 3.169,7.927c2.111,2.137 4.706,3.202 7.781,3.202c3.07,0 5.662,-1.065 7.775,-3.202c2.113,-2.138 3.17,-4.781 3.17,-7.927c-0,-3.15 -1.057,-5.794 -3.17,-7.931c-2.113,-2.134 -4.705,-3.206 -7.775,-3.206c-3.075,-0 -5.67,1.072 -7.781,3.206Z" style="fill:#fff;fill-rule:nonzero;"/><path d="M6.663,372.987c-0.81,0.794 -1.212,1.775 -1.212,2.939c-0,1.164 0.402,2.141 1.212,2.931c0.809,0.789 1.822,1.184 3.038,1.184c0.467,0 0.933,-0.06 1.396,-0.187c0.459,-0.128 0.849,-0.287 1.164,-0.487c0.315,-0.195 0.594,-0.395 0.838,-0.586c0.239,-0.191 0.426,-0.351 0.562,-0.478l0.163,-0.192l3.202,3.39c-0.063,0.095 -0.159,0.219 -0.291,0.374c-0.131,0.152 -0.43,0.427 -0.897,0.818c-0.462,0.391 -0.961,0.737 -1.483,1.037c-0.527,0.299 -1.224,0.57 -2.094,0.809c-0.869,0.243 -1.762,0.363 -2.675,0.363c-2.704,0 -4.977,-0.881 -6.823,-2.648c-1.842,-1.766 -2.763,-3.876 -2.763,-6.336c0,-2.456 0.921,-4.566 2.763,-6.332c1.846,-1.766 4.119,-2.648 6.823,-2.648c0.921,0 1.806,0.12 2.651,0.355c0.846,0.239 1.548,0.523 2.098,0.854c0.554,0.33 1.041,0.665 1.459,0.996c0.419,0.331 0.726,0.614 0.921,0.854l0.263,0.343l-3.269,3.397c-0.048,-0.044 -0.116,-0.112 -0.196,-0.203c-0.083,-0.092 -0.259,-0.252 -0.522,-0.475c-0.263,-0.227 -0.542,-0.423 -0.837,-0.594c-0.291,-0.168 -0.662,-0.323 -1.105,-0.463c-0.446,-0.135 -0.897,-0.207 -1.348,-0.207c-1.216,0 -2.229,0.399 -3.038,1.192Z" style="fill:#fff;fill-rule:nonzero;"/><path d="M41.928,369.588c1.846,1.762 2.767,3.875 2.767,6.332c0,2.456 -0.921,4.569 -2.767,6.332c-1.846,1.766 -4.119,2.651 -6.818,2.651c-2.704,0 -4.977,-0.885 -6.819,-2.651c-1.846,-1.763 -2.767,-3.876 -2.767,-6.332c-0,-2.457 0.921,-4.57 2.767,-6.332c1.842,-1.767 4.115,-2.648 6.819,-2.648c2.699,0 4.972,0.881 6.818,2.648Zm-9.749,3.413c-0.806,0.801 -1.204,1.774 -1.204,2.927c0,1.148 0.398,2.121 1.204,2.918c0.801,0.798 1.774,1.197 2.923,1.197c1.152,0 2.125,-0.399 2.926,-1.197c0.802,-0.797 1.205,-1.77 1.205,-2.918c0,-1.153 -0.403,-2.126 -1.205,-2.927c-0.801,-0.806 -1.774,-1.204 -2.926,-1.204c-1.149,0 -2.122,0.398 -2.923,1.204Z" style="fill:#fff;fill-rule:nonzero;"/><path d="M55.126,367.425l6.791,0c2.635,0 4.832,0.829 6.587,2.488c1.75,1.659 2.628,3.66 2.628,6.005c0,2.349 -0.878,4.35 -2.628,6.009c-1.755,1.659 -3.952,2.488 -6.587,2.488l-6.791,0l0,-16.99Zm6.791,4.856l-1.34,0l0,7.278l1.34,0c1.08,0 1.977,-0.347 2.687,-1.045c0.714,-0.694 1.069,-1.559 1.069,-2.596c0,-1.033 -0.355,-1.898 -1.069,-2.592c-0.71,-0.698 -1.607,-1.045 -2.687,-1.045Z" style="fill:#fff;fill-rule:nonzero;"/><path d="M87.015,379.925l8.258,0l0,4.49l-13.709,0l0,-16.991l13.709,0l0,4.494l-8.258,0l0,1.822l8.258,0l0,4.123l-8.258,0l0,2.062Z" style="fill:#fff;fill-rule:nonzero;"/><path d="M111.402,384.415l-6.683,-16.99l1.942,0l5.583,14.442l5.582,-14.442l1.942,0l-6.671,16.99l-1.695,0Z" style="fill:#fff;fill-rule:nonzero;"/><path d="M132.628,382.722l10.072,0l0,1.694l-11.899,0l0,-16.99l11.899,0l0,1.706l-10.072,0l-0,5.579l10.072,0l0,1.694l-10.072,0l-0,6.317Z" style="fill:#fff;fill-rule:nonzero;"/><path d="M164.646,384.415l-10.559,0l0,-16.99l1.826,0l0,15.296l8.733,0l-0,1.694Z" style="fill:#fff;fill-rule:nonzero;"/><path d="M188.288,369.736c1.699,1.698 2.548,3.76 2.548,6.184c-0,2.424 -0.849,4.486 -2.548,6.185c-1.699,1.698 -3.76,2.548 -6.184,2.548c-2.425,0 -4.486,-0.85 -6.185,-2.548c-1.699,-1.699 -2.548,-3.761 -2.548,-6.185c0,-2.424 0.849,-4.486 2.548,-6.184c1.699,-1.699 3.76,-2.549 6.185,-2.549c2.424,0 4.485,0.85 6.184,2.549Zm-11.101,1.172c-1.336,1.352 -2.002,3.022 -2.002,5.012c-0,1.99 0.666,3.661 2.002,5.012c1.336,1.352 2.975,2.026 4.917,2.026c1.941,0 3.58,-0.674 4.916,-2.026c1.336,-1.351 2.002,-3.022 2.002,-5.012c0,-1.99 -0.666,-3.66 -2.002,-5.012c-1.336,-1.352 -2.975,-2.026 -4.916,-2.026c-1.942,0 -3.581,0.674 -4.917,2.026Z" style="fill:#fff;fill-rule:nonzero;"/><path d="M202.605,367.425l6.436,0c1.571,0 2.875,0.51 3.908,1.527c1.036,1.021 1.551,2.293 1.551,3.812c-0,1.519 -0.519,2.791 -1.555,3.812c-1.041,1.025 -2.341,1.535 -3.904,1.535l-4.61,0l0,6.304l-1.826,0l-0,-16.99Zm6.436,1.706l-4.61,0l0,7.274l4.61,0c1.096,0 1.978,-0.331 2.64,-0.993c0.666,-0.666 0.997,-1.547 0.997,-2.644c0,-1.097 -0.331,-1.978 -0.997,-2.64c-0.662,-0.666 -1.544,-0.997 -2.64,-0.997Z" style="fill:#fff;fill-rule:nonzero;"/><path d="M241.556,370.588l-6.799,8.972l-6.791,-8.972l0,13.829l-1.826,0l0,-16.991l1.575,0l7.042,9.227l7.034,-9.227l1.579,0l-0,16.991l-1.814,0l0,-13.829Z" style="fill:#fff;fill-rule:nonzero;"/><path d="M258.052,382.722l10.073,0l-0,1.694l-11.899,0l0,-16.99l11.899,0l-0,1.706l-10.073,0l0,5.579l10.073,0l-0,1.694l-10.073,0l0,6.317Z" style="fill:#fff;fill-rule:nonzero;"/><path d="M291.529,367.425l1.81,0l-0,16.99l-1.575,0l-10.427,-13.708l0,13.708l-1.822,0l0,-16.99l1.575,0l10.439,13.721l-0,-13.721Z" style="fill:#fff;fill-rule:nonzero;"/><path d="M304.139,367.425l12.501,0l0,1.706l-5.343,0l-0,15.284l-1.814,0l0,-15.284l-5.344,0l0,-1.706Z" style="fill:#fff;fill-rule:nonzero;"/><path d="M103.212,23.598c-2.687,-2.688 -4.031,-5.95 -4.031,-9.786c-0,-3.836 1.344,-7.097 4.031,-9.781c2.688,-2.688 5.95,-4.031 9.786,-4.031c1.36,0 2.664,0.191 3.915,0.574c1.249,0.379 2.286,0.837 3.103,1.376c0.816,0.538 1.535,1.08 2.152,1.63c0.619,0.551 1.065,1.017 1.341,1.404l0.435,0.582l-1.935,1.727c-0.076,-0.128 -0.187,-0.291 -0.334,-0.499c-0.153,-0.203 -0.503,-0.57 -1.049,-1.096c-0.55,-0.526 -1.148,-0.989 -1.79,-1.396c-0.647,-0.407 -1.492,-0.777 -2.541,-1.116c-1.049,-0.335 -2.149,-0.507 -3.297,-0.507c-3.075,-0 -5.671,1.069 -7.781,3.206c-2.112,2.138 -3.169,4.781 -3.169,7.927c-0,3.15 1.057,5.794 3.169,7.931c2.11,2.134 4.706,3.202 7.781,3.202c1.148,-0 2.248,-0.159 3.297,-0.474c1.049,-0.319 1.922,-0.706 2.615,-1.157c0.69,-0.446 1.301,-0.893 1.828,-1.339c0.521,-0.443 0.896,-0.834 1.124,-1.169l0.355,-0.47l1.914,1.742c-0.101,0.152 -0.255,0.347 -0.463,0.591c-0.203,0.243 -0.662,0.685 -1.367,1.323c-0.706,0.634 -1.452,1.205 -2.241,1.703c-0.786,0.502 -1.819,0.949 -3.098,1.34c-1.284,0.395 -2.604,0.59 -3.964,0.59c-3.836,-0 -7.098,-1.34 -9.786,-4.027Z" style="fill:#fff;fill-rule:nonzero;"/><path d="M199.61,0.375l-0,26.875l18.821,0l-0,-2.679l-15.93,-0l-0,-9.993l15.93,-0l-0,-2.675l-15.93,-0l-0,-8.829l15.93,-0l-0,-2.699l-18.821,0Z" style="fill:#fff;fill-rule:nonzero;"/><path d="M291.991,0.376l8.453,-0c3.913,-0 7.223,1.316 9.934,3.951c2.712,2.64 4.066,5.802 4.066,9.486c0,3.689 -1.354,6.847 -4.066,9.483c-2.711,2.639 -6.021,3.955 -9.934,3.955l-8.453,-0l0,-26.875Zm8.453,2.699l-5.565,-0l-0,21.497l5.565,-0c3.151,-0 5.791,-1.045 7.927,-3.13c2.138,-2.086 3.206,-4.626 3.206,-7.621c0,-2.99 -1.068,-5.53 -3.206,-7.616c-2.136,-2.089 -4.776,-3.13 -7.927,-3.13Z" style="fill:#fff;fill-rule:nonzero;"/><path d="M7.742,106.373c-2.687,-2.687 -4.031,-5.949 -4.031,-9.785c-0,-3.836 1.344,-7.094 4.031,-9.781c2.688,-2.688 5.946,-4.027 9.782,-4.027c1.363,0 2.667,0.187 3.919,0.57c1.248,0.379 2.285,0.837 3.103,1.375c0.817,0.539 1.535,1.081 2.153,1.631c0.618,0.551 1.064,1.017 1.34,1.408l0.434,0.578l-1.934,1.727c-0.076,-0.128 -0.187,-0.291 -0.335,-0.499c-0.151,-0.203 -0.502,-0.57 -1.052,-1.096c-0.547,-0.527 -1.145,-0.989 -1.787,-1.396c-0.646,-0.407 -1.491,-0.778 -2.54,-1.116c-1.049,-0.335 -2.149,-0.507 -3.301,-0.507c-3.071,0 -5.667,1.069 -7.776,3.206c-2.113,2.137 -3.17,4.781 -3.17,7.927c0,3.15 1.057,5.794 3.17,7.931c2.109,2.138 4.705,3.202 7.776,3.202c1.152,0 2.252,-0.159 3.301,-0.474c1.049,-0.319 1.922,-0.706 2.616,-1.157c0.69,-0.446 1.3,-0.893 1.826,-1.34c0.523,-0.442 0.897,-0.833 1.125,-1.168l0.355,-0.47l1.914,1.742c-0.1,0.152 -0.256,0.347 -0.463,0.59c-0.203,0.244 -0.662,0.686 -1.368,1.324c-0.705,0.638 -1.451,1.204 -2.241,1.703c-0.785,0.502 -1.818,0.949 -3.098,1.344c-1.284,0.39 -2.604,0.586 -3.967,0.586c-3.836,0 -7.094,-1.34 -9.782,-4.028Z" style="fill:#fff;fill-rule:nonzero;"/><path d="M119.885,86.807c2.687,2.688 4.027,5.946 4.027,9.781c-0,3.836 -1.34,7.098 -4.027,9.786c-2.688,2.687 -5.95,4.027 -9.786,4.027c-3.836,0 -7.093,-1.34 -9.781,-4.027c-2.688,-2.688 -4.031,-5.95 -4.031,-9.786c-0,-3.835 1.343,-7.093 4.031,-9.781c2.688,-2.687 5.945,-4.027 9.781,-4.027c3.836,0 7.098,1.34 9.786,4.027Zm-17.561,1.854c-2.114,2.138 -3.17,4.781 -3.17,7.927c-0,3.151 1.056,5.794 3.17,7.932c2.109,2.137 4.705,3.202 7.775,3.202c3.075,0 5.666,-1.065 7.78,-3.202c2.113,-2.138 3.17,-4.781 3.17,-7.932c0,-3.146 -1.057,-5.789 -3.17,-7.927c-2.114,-2.137 -4.705,-3.206 -7.78,-3.206c-3.07,0 -5.666,1.069 -7.775,3.206Z" style="fill:#fff;fill-rule:nonzero;"/><path d="M196.321,83.152l8.453,0c3.912,0 7.222,1.316 9.933,3.952c2.712,2.64 4.067,5.798 4.067,9.486c-0,3.685 -1.355,6.847 -4.067,9.482c-2.711,2.64 -6.021,3.956 -9.933,3.956l-8.453,0l-0,-26.876Zm8.453,2.7l-5.566,0l0,21.496l5.566,0c3.15,0 5.79,-1.044 7.927,-3.13c2.138,-2.085 3.206,-4.625 3.206,-7.62c-0,-2.99 -1.068,-5.53 -3.206,-7.62c-2.137,-2.085 -4.777,-3.126 -7.927,-3.126Z" style="fill:#fff;fill-rule:nonzero;"/><path d="M299.648,102.925l13.063,0l-0,7.102l-21.684,0l0,-26.875l21.684,0l-0,7.105l-13.063,0l0,2.883l13.063,0l-0,6.524l-13.063,0l0,3.261Z" style="fill:#fff;fill-rule:nonzero;"/></g></svg>